<?xml version="1.0" encoding="utf-8"?>
<!-- Generator: Adobe Illustrator 19.0.0, SVG Export Plug-In . SVG Version: 6.00 Build 0)  -->
<svg version="1.1" id="PRINT" xmlns="http://www.w3.org/2000/svg" xmlns:xlink="http://www.w3.org/1999/xlink" x="0px" y="0px"
	 viewBox="0 0 258.6 145.9" style="enable-background:new 0 0 258.6 145.9;" xml:space="preserve">
<style type="text/css">
	.st0{display:none;}
	.st1{display:inline;}
	.st2{fill:url(#SVGID_1_);}
	.st3{fill:url(#SVGID_2_);}
	.st4{fill:url(#SVGID_3_);}
</style>
<g>
	<g class="st0">
		<defs>
			<rect id="XMLID_613_" x="-2.7" y="-2.8" width="264" height="151.5"/>
		</defs>
		<clipPath id="XMLID_2_" class="st1">
			<use xlink:href="#XMLID_613_"  style="overflow:visible;"/>
		</clipPath>
	</g>
	<g>
		<linearGradient id="SVGID_1_" gradientUnits="userSpaceOnUse" x1="120.3682" y1="23.8348" x2="120.3682" y2="110.3965">
			<stop  offset="0" style="stop-color:#5CC7F2"/>
			<stop  offset="0.1131" style="stop-color:#53BAEA"/>
			<stop  offset="0.7228" style="stop-color:#2781C4"/>
			<stop  offset="1" style="stop-color:#106EB7"/>
		</linearGradient>
		<path class="st2" d="M142.3,48.6l-2.6-8.3l-3.9,8.2c-0.4,0.8-1.3,1.3-2.2,1.3c-0.9-0.1-1.7-0.8-2-1.6l-1.1-3.4L126.9,55
			c-0.3,0.9-1.2,1.5-2.1,1.5h0c-0.9,0-1.8-0.6-2.1-1.5l-4.9-14.4l-3.5,8.5c-0.3,0.8-1.2,1.4-2.1,1.4h-5.7H91.8l15.6,2.2
			c0.9,0.1,1.8,0.6,2.5,1.2L126,71.5c1.3,1.3,3.3,1.3,4.5,0l18-19.5c0.7-0.7,0.2-1.8-0.8-1.8h-3.4C143.4,50.2,142.6,49.5,142.3,48.6
			z"/>
		<linearGradient id="SVGID_2_" gradientUnits="userSpaceOnUse" x1="120.3682" y1="23.8348" x2="120.3682" y2="110.3965">
			<stop  offset="0" style="stop-color:#5CC7F2"/>
			<stop  offset="0.1131" style="stop-color:#53BAEA"/>
			<stop  offset="0.7228" style="stop-color:#2781C4"/>
			<stop  offset="1" style="stop-color:#106EB7"/>
		</linearGradient>
		<path class="st3" d="M142.3,48.6l-2.6-8.3l-3.9,8.2c-0.4,0.8-1.3,1.3-2.2,1.3c-0.9-0.1-1.7-0.8-2-1.6l-1.1-3.4L126.9,55
			c-0.3,0.9-1.2,1.5-2.1,1.5h0c-0.9,0-1.8-0.6-2.1-1.5l-4.9-14.4l-3.5,8.5c-0.3,0.8-1.2,1.4-2.1,1.4h-5.7H91.8l15.6,2.2
			c0.9,0.1,1.8,0.6,2.5,1.2L126,71.5c1.3,1.3,3.3,1.3,4.5,0l18-19.5c0.7-0.7,0.2-1.8-0.8-1.8h-3.4C143.4,50.2,142.6,49.5,142.3,48.6
			z"/>
		<linearGradient id="SVGID_3_" gradientUnits="userSpaceOnUse" x1="134.5952" y1="23.8787" x2="134.5952" y2="110.2098">
			<stop  offset="0" style="stop-color:#5CC7F2"/>
			<stop  offset="0.1131" style="stop-color:#53BAEA"/>
			<stop  offset="0.7228" style="stop-color:#2781C4"/>
			<stop  offset="1" style="stop-color:#106EB7"/>
		</linearGradient>
		<path class="st4" d="M153.9,43.8c0.4-1.6,0.5-3.3,0.2-5.1c-0.9-6.1-6-11-12.2-11.6c-5.9-0.6-11.1,2.6-13.6,7.4
			C126,30,121.4,27,116.1,27c-7.3,0-13.4,5.9-13.7,13.1c-0.1,2.3,0.4,4.4,1.2,6.3c0.2,0.4,0.6,0.6,1,0.6h6.8l4.5-10.9
			c0.4-0.9,1.2-1.4,2.1-1.4c0.9,0,1.7,0.6,2,1.5l4.8,14.1l3.6-10.2c0.3-0.9,1.2-1.5,2.1-1.5l0,0c1,0.1,1.8,0.7,2.1,1.6l1.3,4l4-8.2
			c0.3-0.7,1-1.2,1.8-1.3c1.1-0.1,2.1,0.5,2.4,1.5l3.3,10.5h7.5h14L154.7,45C154.1,44.9,153.8,44.3,153.9,43.8z"/>
	</g>
</g>
</svg>
